<svg xmlns="http://www.w3.org/2000/svg" fill-rule="evenodd" stroke-linejoin="round" stroke-miterlimit="2" clip-rule="evenodd" viewBox="0 0 24 24" id="appstore">
  <g transform="translate(-40 -40)">
    <rect width="24" height="24" x="40" y="40" fill="none"></rect>
    <path fill="#FFF" d="M398.9,292C398.9,291.231 398.594,290.493 398.051,289.949C397.507,289.406 396.769,289.1 396,289.1C392.168,289.1 383.832,289.1 380,289.1C379.231,289.1 378.493,289.406 377.949,289.949C377.406,290.493 377.1,291.231 377.1,292C377.1,295.832 377.1,304.168 377.1,308C377.1,308.769 377.406,309.507 377.949,310.051C378.493,310.594 379.231,310.9 380,310.9C383.832,310.9 392.168,310.9 396,310.9C396.769,310.9 397.507,310.594 398.051,310.051C398.594,309.507 398.9,308.769 398.9,308L398.9,292ZM397.1,292L397.1,308C397.1,308.292 396.984,308.572 396.778,308.778C396.572,308.984 396.292,309.1 396,309.1C392.168,309.1 383.832,309.1 380,309.1C379.708,309.1 379.428,308.984 379.222,308.778C379.016,308.572 378.9,308.292 378.9,308C378.9,304.168 378.9,295.832 378.9,292C378.9,291.708 379.016,291.428 379.222,291.222C379.428,291.016 379.708,290.9 380,290.9C383.832,290.9 392.168,290.9 396,290.9C396.292,290.9 396.572,291.016 396.778,291.222C396.984,291.428 397.1,291.708 397.1,292ZM392.637,306.329L388.468,298.884C388.226,298.45 388.381,297.901 388.814,297.659C389.248,297.416 389.796,297.571 390.039,298.004L392.231,301.92L394.49,301.92C394.987,301.92 395.39,302.323 395.39,302.82C395.39,303.317 394.987,303.72 394.49,303.72L393.239,303.72L394.207,305.45C394.45,305.883 394.295,306.432 393.861,306.675C393.428,306.917 392.879,306.762 392.637,306.329ZM382.392,304.286L381.731,305.442C381.484,305.873 381.634,306.424 382.065,306.671C382.496,306.917 383.046,306.768 383.293,306.336L383.955,305.18C384.201,304.749 384.052,304.199 383.621,303.952C383.19,303.706 382.639,303.855 382.392,304.286ZM386.993,296.248L386.043,294.55C385.8,294.117 385.955,293.568 386.388,293.325C386.822,293.083 387.371,293.238 387.613,293.671L388.036,294.426L388.473,293.664C388.719,293.232 389.27,293.083 389.701,293.329C390.132,293.576 390.282,294.127 390.035,294.558L388.84,296.646C388.821,296.685 388.799,296.723 388.775,296.759L385.821,301.92L389.254,301.92C389.75,301.92 390.154,302.323 390.154,302.82C390.154,303.317 389.75,303.72 389.254,303.72L381.51,303.72C381.013,303.72 380.61,303.317 380.61,302.82C380.61,302.323 381.013,301.92 381.51,301.92L383.747,301.92L386.993,296.248Z" transform="translate(-336 -248)"></path>
  </g>
</svg>
